<?xml version="1.0" standalone="no"?>
<!DOCTYPE svg PUBLIC "-//W3C//DTD SVG 20010904//EN"
   "http://www.w3.org/TR/2001/REC-SVG-20010904/DTD/svg10.dtd">

<svg id="cvpage4_top" width="842px" height="595px" xmlns="http://www.w3.org/2000/svg" xmlns:xlink="http://www.w3.org/1999/xlink">
   <line x1="128.059px" y1="385.503px" x2="128.195px" y2="408.195px" fill="none" stroke="#000" />
   <polygon points="128.245,416.624 125.537,408.211 130.852,408.18 128.245,416.624 " fill="#000" fill-rule="nonzero" stroke="#000" stroke-width="0.1px" />
   <rect x="30.564px" y="350.197px" width="194.99px" height="35.307px" fill="#FFF" fill-rule="nonzero" stroke="#000" />
   <line x1="421.201px" y1="281.69px" x2="420.822px" y2="313.641px" fill="none" stroke="#000" />
   <polygon points="420.722,322.069 418.164,313.61 423.479,313.673 420.722,322.069 " fill="#000" fill-rule="nonzero" stroke="#000" stroke-width="0.1px" />
   <line x1="326.367px" y1="343.907px" x2="201.693px" y2="274.402px" fill="none" stroke="#000" />
   <polygon points="194.332,270.298 202.987,272.081 200.399,276.723 194.332,270.298 " fill="#000" fill-rule="nonzero" stroke="#000" stroke-width="0.1px" />
   <rect x="326.367px" y="322.069px" width="188.71px" height="43.675px" fill="#FFF" fill-rule="nonzero" stroke="#000" />
   <line x1="129.484px" y1="80.855px" x2="129.216px" y2="110.334px" fill="none" stroke="#000" />
   <polygon points="129.139,118.762 126.558,110.31 131.873,110.358 129.139,118.762 " fill="#000" fill-rule="nonzero" stroke="#000" stroke-width="0.1px" />
   <path d="M 218.106 55.309 C 218.106 69.408 178.396 80.855 129.484 80.855 C 80.571 80.855 40.861 69.408 40.861 55.309 C 40.861 41.21 80.571 29.763 129.484 29.763 C 178.396 29.763 218.106 41.21 218.106 55.309 Z" fill="#FFF" fill-rule="nonzero" stroke="#000" />
   <line x1="129.139px" y1="158.317px" x2="129.528px" y2="193.328px" fill="none" stroke="#000" />
   <polygon points="129.622,201.756 126.871,193.358 132.186,193.299 129.622,201.756 " fill="#000" fill-rule="nonzero" stroke="#000" stroke-width="0.1px" />
   <rect x="55.798px" y="118.762px" width="146.683px" height="39.555px" fill="#FFF" fill-rule="nonzero" stroke="#000" />
   <line x1="243.96px" y1="249.552px" x2="291.703px" y2="249.202px" fill="none" stroke="#000" />
   <polygon points="300.131,249.14 291.722,251.859 291.683,246.544 300.131,249.14 " fill="#000" fill-rule="nonzero" stroke="#000" stroke-width="0.1px" />
   <polygon points="129.622,201.756 243.96,249.552 129.622,297.347 15.283,249.552 129.622,201.756 " fill="#FFF" fill-rule="evenodd" stroke="none" />
   <polygon points="129.622,201.756 243.96,249.552 129.622,297.347 15.283,249.552 129.622,201.756 " fill="none" stroke="#000" />
   <rect x="300.131px" y="216.589px" width="242.14px" height="65.101px" fill="#FFF" fill-rule="nonzero" stroke="#000" />
   <rect x="22.382px" y="416.624px" width="211.725px" height="47.796px" fill="#FFF" fill-rule="nonzero" stroke="#000" />
   <path d="M 224.72 513.363 C 224.72 528.372 180.595 540.557 126.245 540.557 C 71.895 540.557 27.769 528.372 27.769 513.363 C 27.769 498.354 71.895 486.169 126.245 486.169 C 180.595 486.169 224.72 498.354 224.72 513.363 Z" fill="#FFF" fill-rule="nonzero" stroke="#000" />
   <line x1="129.386px" y1="298.171px" x2="129.386px" y2="340.011px" fill="none" stroke="#000" />
   <polygon points="129.386,348.439 126.729,340.011 132.044,340.011 129.386,348.439 " fill="#000" fill-rule="nonzero" stroke="#000" stroke-width="0.1px" />
   <line x1="126.979px" y1="463.595px" x2="126.979px" y2="476.592px" fill="none" stroke="#000" />
   <polygon points="126.979,485.021 124.322,476.592 129.637,476.592 126.979,485.021 " fill="#000" fill-rule="nonzero" stroke="#000" stroke-width="0.1px" />
   <g transform="translate(49.664,48.717)" font-size="12px" font-family="Arial, sans-serif">
      <text x="79.82px" y="10.8px" text-anchor="middle">
         BLE Readout Mode Initialized
      </text>
   </g>
   <g transform="translate(64.042,127.003)" font-size="12px" font-family="Arial, sans-serif">
      <text x="65.099px" y="10.8px" text-anchor="middle">
         Wait for BLE connection
      </text>
      <text x="65.099px" y="24.24px" text-anchor="middle">
         from device
      </text>
   </g>
   <g transform="translate(30.765,240.899)" font-size="12px" font-family="Arial, sans-serif">
      <text x="97.533px" y="10.8px" text-anchor="middle">
         Read all measurement readings
      </text>
      <text x="97.533px" y="24.24px" text-anchor="middle">
         (Done?)
      </text>
   </g>
   <g transform="translate(304.135,222.358)" font-size="12px" font-family="Arial, sans-serif">
      <text x="115.772px" y="10.8px" text-anchor="middle">
         Prepare and send BLE indication packet of
      </text>
      <text x="115.772px" y="24.24px" text-anchor="middle">
         timestamp (hh:mm::ss from initialization),
      </text>
      <text x="115.772px" y="37.68px" text-anchor="middle">
         raw pH Sensor voltage, reference ADC
      </text>
      <text x="115.772px" y="51.12px" text-anchor="middle">
         voltage, corrected pH Sensor Voltage
      </text>
   </g>
   <g transform="translate(335.527,329.486)" font-size="12px" font-family="Arial, sans-serif">
      <text x="86.891px" y="10.8px" text-anchor="middle">
         Update pointer in Flash Memory
      </text>
      <text x="86.891px" y="24.24px" text-anchor="middle">
         to point to next reading
      </text>
   </g>
   <g transform="translate(25.827,425.659)" font-size="12px" font-family="Arial, sans-serif">
      <text x="100.476px" y="10.8px" text-anchor="middle">
         All indications sent, put system in
      </text>
      <text x="100.476px" y="24.24px" text-anchor="middle">
         IOFF_RAMOFF_RESET (0.4 uA)
      </text>
   </g>
   <g transform="translate(36.725,506.771)" font-size="12px" font-family="Arial, sans-serif">
      <text x="91.58px" y="10.8px" text-anchor="middle">
         Wait for System to be switched off
      </text>
   </g>
   <g transform="translate(250.589,227.882)" font-size="12px" font-family="Arial, sans-serif">
      <text x="19.22px" y="10.8px" text-anchor="middle">
         FALSE
      </text>
   </g>
   <g transform="translate(138.919,312.644)" font-size="12px" font-family="Arial, sans-serif">
      <text x="16.88px" y="10.8px" text-anchor="middle">
         TRUE
      </text>
   </g>
   <g transform="translate(39.401,360.628)" font-size="12px" font-family="Arial, sans-serif">
      <text x="89.06px" y="10.8px" text-anchor="middle">
         Reset Data Present Flag in Flash
      </text>
   </g>
</svg>