<?xml version="1.0" standalone="no"?>
<!DOCTYPE svg PUBLIC "-//W3C//DTD SVG 20010904//EN"
   "http://www.w3.org/TR/2001/REC-SVG-20010904/DTD/svg10.dtd">

<svg id="cvpage2_top" width="842px" height="595px" xmlns="http://www.w3.org/2000/svg" xmlns:xlink="http://www.w3.org/1999/xlink">
   <line x1="584.239px" y1="352.604px" x2="584.499px" y2="368.249px" fill="none" stroke="#000" />
   <polygon points="584.64,376.677 581.842,368.294 587.157,368.205 584.64,376.677 " fill="#000" fill-rule="nonzero" stroke="#000" stroke-width="0.1px" />
   <line x1="583.702px" y1="280.366px" x2="584.086px" y2="301.648px" fill="none" stroke="#000" />
   <polygon points="584.239,310.075 581.429,301.696 586.743,301.6 584.239,310.075 " fill="#000" fill-rule="nonzero" stroke="#000" stroke-width="0.1px" />
   <rect x="497.577px" y="310.075px" width="173.324px" height="42.529px" fill="#FFF" fill-rule="nonzero" stroke="#000" />
   <line x1="555.351px" y1="502.658px" x2="189.7px" y2="253.295px" fill="none" stroke="#000" />
   <polygon points="182.737,248.546 191.198,251.099 188.203,255.49 182.737,248.546 " fill="#000" fill-rule="nonzero" stroke="#000" stroke-width="0.1px" />
   <line x1="584.64px" y1="432.044px" x2="584.64px" y2="482.193px" fill="none" stroke="#000" />
   <polygon points="584.64,490.621 581.982,482.193 587.297,482.193 584.64,490.621 " fill="#000" fill-rule="nonzero" stroke="#000" stroke-width="0.1px" />
   <rect x="555.351px" y="490.621px" width="58.577px" height="24.073px" fill="#FFF" fill-rule="nonzero" stroke="#000" />
   <polyline points="765.186,244.276 765.186,404.361 700.995,404.361 " fill="none" stroke="#000" />
   <polygon points="692.566,404.361 700.995,401.703 700.995,407.018 692.566,404.361 " fill="#000" fill-rule="nonzero" stroke="#000" stroke-width="0.1px" />
   <rect x="476.714px" y="376.677px" width="215.853px" height="55.367px" fill="#FFF" fill-rule="nonzero" stroke="#000" />
   <polyline points="687.533,94.128 765.186,94.128 765.186,211.775 " fill="none" stroke="#000" />
   <polygon points="765.186,220.204 762.528,211.775 767.843,211.775 765.186,220.204 " fill="#000" fill-rule="nonzero" stroke="#000" stroke-width="0.1px" />
   <rect x="711.022px" y="220.204px" width="108.328px" height="24.073px" fill="#FFF" fill-rule="nonzero" stroke="#000" />
   <rect x="494.703px" y="185.599px" width="177.997px" height="94.767px" fill="#FFF" fill-rule="nonzero" stroke="#000" />
   <polyline points="434.319,226.478 450.233,226.478 450.233,94.128 " fill="none" stroke="#000" />
   <rect x="273.627px" y="191.867px" width="160.692px" height="69.221px" fill="#FFF" fill-rule="nonzero" stroke="#000" />
   <rect x="32.177px" y="105.341px" width="175.525px" height="53.564px" fill="#FFF" fill-rule="nonzero" stroke="#000" />
   <path d="M 200.285 55.485 C 200.285 68.902 163.914 79.795 119.115 79.795 C 74.316 79.795 37.945 68.902 37.945 55.485 C 37.945 42.068 74.316 31.175 119.115 31.175 C 163.914 31.175 200.285 42.068 200.285 55.485 Z" fill="#FFF" fill-rule="nonzero" stroke="#000" />
   <polygon points="121.175,172.914 229.952,225.654 121.175,278.394 12.399,225.654 121.175,172.914 " fill="#FFF" fill-rule="evenodd" stroke="none" />
   <polygon points="121.175,172.914 229.952,225.654 121.175,278.394 12.399,225.654 121.175,172.914 " fill="none" stroke="#000" />
   <rect x="16.579px" y="327.838px" width="211.725px" height="47.796px" fill="#FFF" fill-rule="nonzero" stroke="#000" />
   <path d="M 218.917 424.577 C 218.917 439.586 174.791 451.771 120.441 451.771 C 66.091 451.771 21.966 439.586 21.966 424.577 C 21.966 409.568 66.091 397.383 120.441 397.383 C 174.791 397.383 218.917 409.568 218.917 424.577 Z" fill="#FFF" fill-rule="nonzero" stroke="#000" />
   <line x1="119.115px" y1="79.795px" x2="119.387px" y2="96.089px" fill="none" stroke="#000" />
   <polygon points="119.527,104.517 116.73,96.134 122.044,96.045 119.527,104.517 " fill="#000" fill-rule="nonzero" stroke="#000" stroke-width="0.1px" />
   <line x1="120.351px" y1="158.081px" x2="120.708px" y2="164.498px" fill="none" stroke="#000" />
   <polygon points="121.175,172.914 118.054,164.646 123.361,164.351 121.175,172.914 " fill="#000" fill-rule="nonzero" stroke="#000" stroke-width="0.1px" />
   <line x1="121.175px" y1="278.394px" x2="121.175px" y2="320.233px" fill="none" stroke="#000" />
   <polygon points="121.175,328.662 118.518,320.233 123.833,320.233 121.175,328.662 " fill="#000" fill-rule="nonzero" stroke="#000" stroke-width="0.1px" />
   <line x1="121.175px" y1="374.809px" x2="121.175px" y2="387.806px" fill="none" stroke="#000" />
   <polygon points="121.175,396.235 118.518,387.806 123.833,387.806 121.175,396.235 " fill="#000" fill-rule="nonzero" stroke="#000" stroke-width="0.1px" />
   <line x1="229.952px" y1="225.654px" x2="261.902px" y2="225.654px" fill="none" stroke="#000" />
   <polygon points="270.33,225.654 261.902,228.311 261.902,222.996 270.33,225.654 " fill="#000" fill-rule="nonzero" stroke="#000" stroke-width="0.1px" />
   <polyline points="450.233,94.128 450.233,94.128 465.673,94.128 " fill="none" stroke="#000" />
   <polygon points="474.101,94.128 465.673,96.786 465.673,91.471 474.101,94.128 " fill="#000" fill-rule="nonzero" stroke="#000" stroke-width="0.1px" />
   <polygon points="580.817,36.444 687.533,94.128 580.817,151.812 474.101,94.128 580.817,36.444 " fill="#FFF" fill-rule="evenodd" stroke="none" />
   <polygon points="580.817,36.444 687.533,94.128 580.817,151.812 474.101,94.128 580.817,36.444 " fill="none" stroke="#000" />
   <line x1="580.817px" y1="151.812px" x2="580.373px" y2="177.272px" fill="none" stroke="#000" />
   <polygon points="580.226,185.699 577.716,177.226 583.031,177.318 580.226,185.699 " fill="#000" fill-rule="nonzero" stroke="#000" stroke-width="0.1px" />
   <g transform="translate(43.075,47.657)" font-size="12px" font-family="Arial, sans-serif">
      <text x="76.04px" y="10.8px" text-anchor="middle">
         Deployment Mode Initialized
      </text>
   </g>
   <g transform="translate(38.002,113.582)" font-size="12px" font-family="Arial, sans-serif">
      <text x="82.172px" y="10.8px" text-anchor="middle">
         Pull VBAT_ENABLE Low to
      </text>
      <text x="82.172px" y="24.24px" text-anchor="middle">
         enable reading of Battery
      </text>
      <text x="82.172px" y="37.68px" text-anchor="middle">
         Voltage
      </text>
   </g>
   <g transform="translate(22.936,215.765)" font-size="12px" font-family="Arial, sans-serif">
      <text x="97.533px" y="10.8px" text-anchor="middle">
         Repeat measurement readings as
      </text>
      <text x="97.533px" y="24.24px" text-anchor="middle">
         per parameters (Done?)
      </text>
   </g>
   <g transform="translate(20.023,336.873)" font-size="12px" font-family="Arial, sans-serif">
      <text x="100.476px" y="10.8px" text-anchor="middle">
         All measurements taken, put system
      </text>
      <text x="100.476px" y="24.24px" text-anchor="middle">
         in IOFF_RAMOFF_RESET (0.4 uA)
      </text>
   </g>
   <g transform="translate(30.921,417.984)" font-size="12px" font-family="Arial, sans-serif">
      <text x="91.58px" y="10.8px" text-anchor="middle">
         Wait for System to be switched off
      </text>
   </g>
   <g transform="translate(227.132,204.093)" font-size="12px" font-family="Arial, sans-serif">
      <text x="19.22px" y="10.8px" text-anchor="middle">
         FALSE
      </text>
   </g>
   <g transform="translate(133.153,290.825)" font-size="12px" font-family="Arial, sans-serif">
      <text x="16.88px" y="10.8px" text-anchor="middle">
         TRUE
      </text>
   </g>
   <g transform="translate(270.888,199.284)" font-size="12px" font-family="Arial, sans-serif">
      <text x="84.188px" y="10.8px" text-anchor="middle">
         Obtain ADC Samples from
      </text>
      <text x="84.188px" y="24.24px" text-anchor="middle">
         phSensor and Reference
      </text>
      <text x="84.188px" y="37.68px" text-anchor="middle">
         channel connected to 3v3 to
      </text>
      <text x="84.188px" y="51.12px" text-anchor="middle">
         compute gain correction
      </text>
   </g>
   <g transform="translate(492.156,81.767)" font-size="12px" font-family="Arial, sans-serif">
      <text x="90.066px" y="10.8px" text-anchor="middle">
         Check if Battery Voltage exceeds
      </text>
      <text x="90.066px" y="24.24px" text-anchor="middle">
         minimum Flash Write threshold
      </text>
   </g>
   <g transform="translate(495.332,193.016)" font-size="12px" font-family="Arial, sans-serif">
      <text x="87.036px" y="10.8px" text-anchor="middle">
         Write timestamp (hh:mm::ss
      </text>
      <text x="87.036px" y="24.24px" text-anchor="middle">
         from deployment initialization),
      </text>
      <text x="87.036px" y="37.68px" text-anchor="middle">
         raw pH Sensor voltage,
      </text>
      <text x="87.036px" y="51.12px" text-anchor="middle">
         reference ADC voltage,
      </text>
      <text x="87.036px" y="64.56px" text-anchor="middle">
         corrected pH Sensor Voltage to
      </text>
      <text x="87.036px" y="78px" text-anchor="middle">
         Flash in consecutive order
      </text>
   </g>
   <g transform="translate(590.813,159.32)" font-size="12px" font-family="Arial, sans-serif">
      <text x="16.88px" y="10.8px" text-anchor="middle">
         TRUE
      </text>
   </g>
   <g transform="translate(716.307,224.216)" font-size="12px" font-family="Arial, sans-serif">
      <text x="49.28px" y="10.8px" text-anchor="middle">
         No write operation
      </text>
   </g>
   <g transform="translate(720.651,70.952)" font-size="12px" font-family="Arial, sans-serif">
      <text x="19.22px" y="10.8px" text-anchor="middle">
         FALSE
      </text>
   </g>
   <g transform="translate(481.813,383.899)" font-size="12px" font-family="Arial, sans-serif">
      <text x="101.766px" y="10.8px" text-anchor="middle">
         Put MCU in ION_RAMON_RTC
      </text>
      <text x="101.766px" y="24.24px" text-anchor="middle">
         (System ON, full RAM retention, wake
      </text>
      <text x="101.766px" y="37.68px" text-anchor="middle">
         on RTC) sleep mode for 1 hour
      </text>
   </g>
   <g transform="translate(560.721,494.634)" font-size="12px" font-family="Arial, sans-serif">
      <text x="24.32px" y="10.8px" text-anchor="middle">
         Wake up
      </text>
   </g>
   <g transform="translate(500.072,316.495)" font-size="12px" font-family="Arial, sans-serif">
      <text x="85.414px" y="10.8px" text-anchor="middle">
         Set Data Present Flag if not
      </text>
      <text x="85.414px" y="24.24px" text-anchor="middle">
         already set in Flash
      </text>
   </g>
</svg>