<?xml version="1.0" standalone="no"?>
<!DOCTYPE svg PUBLIC "-//W3C//DTD SVG 20010904//EN"
   "http://www.w3.org/TR/2001/REC-SVG-20010904/DTD/svg10.dtd">

<svg id="cvpage3_top" width="842px" height="595px" xmlns="http://www.w3.org/2000/svg" xmlns:xlink="http://www.w3.org/1999/xlink">
   <line x1="142.205px" y1="220.21px" x2="142.194px" y2="228.009px" fill="none" stroke="#000" />
   <polygon points="142.181,236.438 139.536,228.005 144.851,228.013 142.181,236.438 " fill="#000" fill-rule="nonzero" stroke="#000" stroke-width="0.1px" />
   <line x1="142.181px" y1="312.438px" x2="142.103px" y2="320.282px" fill="none" stroke="#000" />
   <polygon points="142.018,328.71 139.445,320.255 144.76,320.308 142.018,328.71 " fill="#000" fill-rule="nonzero" stroke="#000" stroke-width="0.1px" />
   <rect x="5.381px" y="236.438px" width="273.6px" height="76px" fill="#FFF" fill-rule="nonzero" stroke="#000" />
   <line x1="575.269px" y1="403.287px" x2="574.942px" y2="435.366px" fill="none" stroke="#000" />
   <polygon points="574.857,443.794 572.285,435.339 577.6,435.393 574.857,443.794 " fill="#000" fill-rule="nonzero" stroke="#000" stroke-width="0.1px" />
   <line x1="527.473px" y1="456.979px" x2="294.264px" y2="456.851px" fill="none" stroke="#000" />
   <rect x="527.473px" y="443.794px" width="94.767px" height="26.37px" fill="#FFF" fill-rule="nonzero" stroke="#000" />
   <line x1="436.873px" y1="370.737px" x2="452.296px" y2="370.737px" fill="none" stroke="#000" />
   <polygon points="460.724,370.737 452.296,373.394 452.296,368.079 460.724,370.737 " fill="#000" fill-rule="nonzero" stroke="#000" stroke-width="0.1px" />
   <rect x="460.724px" y="338.187px" width="229.089px" height="65.101px" fill="#FFF" fill-rule="nonzero" stroke="#000" />
   <line x1="142.145px" y1="150.988px" x2="142.188px" y2="172.226px" fill="none" stroke="#000" />
   <polygon points="142.205,180.655 139.53,172.231 144.845,172.221 142.205,180.655 " fill="#000" fill-rule="nonzero" stroke="#000" stroke-width="0.1px" />
   <rect x="68.863px" y="180.655px" width="146.683px" height="39.555px" fill="#FFF" fill-rule="nonzero" stroke="#000" />
   <rect x="54.383px" y="97.424px" width="175.525px" height="53.564px" fill="#FFF" fill-rule="nonzero" stroke="#000" />
   <path d="M 230.344 46.333 C 230.344 60.432 190.633 71.878 141.721 71.878 C 92.809 71.878 53.098 60.432 53.098 46.333 C 53.098 32.233 92.809 20.787 141.721 20.787 C 190.633 20.787 230.344 32.233 230.344 46.333 Z" fill="#FFF" fill-rule="nonzero" stroke="#000" />
   <line x1="141.721px" y1="71.878px" x2="141.993px" y2="88.173px" fill="none" stroke="#000" />
   <polygon points="142.133,96.6 139.335,88.217 144.65,88.129 142.133,96.6 " fill="#000" fill-rule="nonzero" stroke="#000" stroke-width="0.1px" />
   <line x1="294.264px" y1="456.851px" x2="201.995px" y2="392.894px" fill="none" stroke="#000" />
   <polygon points="195.068,388.093 203.509,390.71 200.482,395.078 195.068,388.093 " fill="#000" fill-rule="nonzero" stroke="#000" stroke-width="0.1px" />
   <polygon points="142.018,328.71 235.755,370.119 142.018,411.528 48.281,370.119 142.018,328.71 " fill="#FFF" fill-rule="evenodd" stroke="none" />
   <polygon points="142.018,328.71 235.755,370.119 142.018,411.528 48.281,370.119 142.018,328.71 " fill="none" stroke="#000" />
   <rect x="276.181px" y="336.126px" width="160.692px" height="69.221px" fill="#FFF" fill-rule="nonzero" stroke="#000" />
   <line x1="233.33px" y1="370.737px" x2="265.28px" y2="370.737px" fill="none" stroke="#000" />
   <polygon points="273.709,370.737 265.28,373.394 265.28,368.079 273.709,370.737 " fill="#000" fill-rule="nonzero" stroke="#000" stroke-width="0.1px" />
   <rect x="37.186px" y="461.796px" width="211.725px" height="47.796px" fill="#FFF" fill-rule="nonzero" stroke="#000" />
   <path d="M 239.524 558.535 C 239.524 573.544 195.398 585.729 141.048 585.729 C 86.698 585.729 42.573 573.544 42.573 558.535 C 42.573 543.526 86.698 531.341 141.048 531.341 C 195.398 531.341 239.524 543.526 239.524 558.535 Z" fill="#FFF" fill-rule="nonzero" stroke="#000" />
   <line x1="141.782px" y1="412.352px" x2="141.782px" y2="454.191px" fill="none" stroke="#000" />
   <polygon points="141.782,462.62 139.125,454.191 144.44,454.191 141.782,462.62 " fill="#000" fill-rule="nonzero" stroke="#000" stroke-width="0.1px" />
   <line x1="141.782px" y1="508.767px" x2="141.782px" y2="521.764px" fill="none" stroke="#000" />
   <polygon points="141.782,530.193 139.125,521.764 144.44,521.764 141.782,530.193 " fill="#000" fill-rule="nonzero" stroke="#000" stroke-width="0.1px" />
   <g transform="translate(54.341,39.74)" font-size="12px" font-family="Arial, sans-serif">
      <text x="87.38px" y="10.8px" text-anchor="middle">
         Pre-Deployment Mode Initialized
      </text>
   </g>
   <g transform="translate(60.208,105.665)" font-size="12px" font-family="Arial, sans-serif">
      <text x="82.172px" y="10.8px" text-anchor="middle">
         Pull VBAT_ENABLE Low to
      </text>
      <text x="82.172px" y="24.24px" text-anchor="middle">
         enable reading of Battery
      </text>
      <text x="82.172px" y="37.68px" text-anchor="middle">
         Voltage
      </text>
   </g>
   <g transform="translate(77.107,188.895)" font-size="12px" font-family="Arial, sans-serif">
      <text x="65.099px" y="10.8px" text-anchor="middle">
         Wait for BLE connection
      </text>
      <text x="65.099px" y="24.24px" text-anchor="middle">
         from device
      </text>
   </g>
   <g transform="translate(69.531,355.08)" font-size="12px" font-family="Arial, sans-serif">
      <text x="69.927px" y="10.8px" text-anchor="middle">
         Repeat measurement
      </text>
      <text x="69.927px" y="24.24px" text-anchor="middle">
         readings n times  (i&#60;n)
      </text>
   </g>
   <g transform="translate(227.986,346.015)" font-size="12px" font-family="Arial, sans-serif">
      <text x="16.88px" y="10.8px" text-anchor="middle">
         TRUE
      </text>
   </g>
   <g transform="translate(273.442,343.543)" font-size="12px" font-family="Arial, sans-serif">
      <text x="84.188px" y="10.8px" text-anchor="middle">
         Obtain ADC Samples from
      </text>
      <text x="84.188px" y="24.24px" text-anchor="middle">
         phSensor and Reference
      </text>
      <text x="84.188px" y="37.68px" text-anchor="middle">
         channel connected to 3v3 to
      </text>
      <text x="84.188px" y="51.12px" text-anchor="middle">
         compute gain correction
      </text>
   </g>
   <g transform="translate(40.63,470.831)" font-size="12px" font-family="Arial, sans-serif">
      <text x="100.476px" y="10.8px" text-anchor="middle">
         All measurements taken, put system
      </text>
      <text x="100.476px" y="24.24px" text-anchor="middle">
         in IOFF_RAMOFF_RESET (0.4 uA)
      </text>
   </g>
   <g transform="translate(51.529,551.943)" font-size="12px" font-family="Arial, sans-serif">
      <text x="91.58px" y="10.8px" text-anchor="middle">
         Wait for System to be switched off
      </text>
   </g>
   <g transform="translate(153.053,424.713)" font-size="12px" font-family="Arial, sans-serif">
      <text x="19.22px" y="10.8px" text-anchor="middle">
         FALSE
      </text>
   </g>
   <g transform="translate(464.728,343.955)" font-size="12px" font-family="Arial, sans-serif">
      <text x="110.071px" y="10.8px" text-anchor="middle">
         Send BLE indication packet of timestamp
      </text>
      <text x="110.071px" y="24.24px" text-anchor="middle">
         (hh:mm::ss from initialization), raw pH
      </text>
      <text x="110.071px" y="37.68px" text-anchor="middle">
         Sensor voltage, reference ADC voltage,
      </text>
      <text x="110.071px" y="51.12px" text-anchor="middle">
         corrected pH Sensor Voltage
      </text>
   </g>
   <g transform="translate(531.869,450.386)" font-size="12px" font-family="Arial, sans-serif">
      <text x="43.4px" y="10.8px" text-anchor="middle">
         Wait m seconds
      </text>
   </g>
   <g transform="translate(7.412,241.06)" font-size="12px" font-family="Arial, sans-serif">
      <text x="134.749px" y="10.8px" text-anchor="middle">
         Wait to receive settings packet and update
      </text>
      <text x="134.749px" y="24.24px" text-anchor="middle">
         settings in flash (Limited or Continuous Scanning,
      </text>
      <text x="134.749px" y="37.68px" text-anchor="middle">
         Number of measurements in deployment/pre-
      </text>
      <text x="134.749px" y="51.12px" text-anchor="middle">
         deployment, Number of samples per hour in
      </text>
      <text x="134.749px" y="64.56px" text-anchor="middle">
         deployment, Sample interval in pre-deployment)
      </text>
   </g>
</svg>