<?xml version="1.0" standalone="no"?>
<!DOCTYPE svg PUBLIC "-//W3C//DTD SVG 20010904//EN"
   "http://www.w3.org/TR/2001/REC-SVG-20010904/DTD/svg10.dtd">

<svg id="cvpage1_top" width="842px" height="595px" xmlns="http://www.w3.org/2000/svg" xmlns:xlink="http://www.w3.org/1999/xlink">
   <path d="M 583.259 175.531 C 583.259 193.196 568.775 207.538 550.936 207.538 C 533.097 207.538 518.614 193.196 518.614 175.531 C 518.614 157.865 533.097 143.523 550.936 143.523 C 568.775 143.523 583.259 157.865 583.259 175.531 Z" fill="#FFF" fill-rule="nonzero" stroke="#000" />
   <path d="M 755.667 278.312 C 755.667 297.605 739.996 313.268 720.693 313.268 C 701.391 313.268 685.72 297.605 685.72 278.312 C 685.72 259.02 701.391 243.356 720.693 243.356 C 739.996 243.356 755.667 259.02 755.667 278.312 Z" fill="#FFF" fill-rule="nonzero" stroke="#000" />
   <path d="M 369.246 175.503 C 369.246 193.168 354.762 207.51 336.923 207.51 C 319.084 207.51 304.601 193.168 304.601 175.503 C 304.601 157.838 319.084 143.496 336.923 143.496 C 354.762 143.496 369.246 157.838 369.246 175.503 Z" fill="#FFF" fill-rule="nonzero" stroke="#000" />
   <path d="M 176.37 87.815 C 176.37 105.48 161.887 119.822 144.048 119.822 C 126.209 119.822 111.726 105.48 111.726 87.815 C 111.726 70.15 126.209 55.808 144.048 55.808 C 161.887 55.808 176.37 70.15 176.37 87.815 Z" fill="#FFF" fill-rule="nonzero" stroke="#000" />
   <path d="M 161.561 259.422 C 161.561 278.095 146.018 293.255 126.873 293.255 C 107.728 293.255 92.185 278.095 92.185 259.422 C 92.185 240.749 107.728 225.588 126.873 225.588 C 146.018 225.588 161.561 240.749 161.561 259.422 Z" fill="#FFF" fill-rule="nonzero" stroke="#000" />
   <path d="M 752.924 74.763 C 752.924 92.428 738.441 106.77 720.602 106.77 C 702.763 106.77 688.28 92.428 688.28 74.763 C 688.28 57.098 702.763 42.756 720.602 42.756 C 738.441 42.756 752.924 57.098 752.924 74.763 Z" fill="#FFF" fill-rule="nonzero" stroke="#000" />
   <line x1="581.029px" y1="187.304px" x2="690.749px" y2="245.922px" fill="none" stroke="#000" />
   <polygon points="698.183,249.893 689.497,248.266 692.001,243.578 698.183,249.893 " fill="#000" fill-rule="nonzero" stroke="#000" stroke-width="0.1px" />
   <line x1="690.159px" y1="260.325px" x2="581.999px" y2="200.987px" fill="none" stroke="#000" />
   <polygon points="574.61,196.933 583.277,198.657 580.721,203.317 574.61,196.933 " fill="#000" fill-rule="nonzero" stroke="#000" stroke-width="0.1px" />
   <line x1="569.795px" y1="148.788px" x2="682.722px" y2="88.56px" fill="none" stroke="#000" />
   <polygon points="690.159,84.594 683.973,90.905 681.471,86.215 690.159,84.594 " fill="#000" fill-rule="nonzero" stroke="#000" stroke-width="0.1px" />
   <line x1="694.171px" y1="93.42px" x2="584.472px" y2="151.275px" fill="none" stroke="#000" />
   <polygon points="577.017,155.207 583.232,148.925 585.712,153.626 577.017,155.207 " fill="#000" fill-rule="nonzero" stroke="#000" stroke-width="0.1px" />
   <line x1="518.614px" y1="175.531px" x2="377.674px" y2="175.505px" fill="none" stroke="#000" />
   <polygon points="369.246,175.503 377.675,172.847 377.674,178.162 369.246,175.503 " fill="#000" fill-rule="nonzero" stroke="#000" stroke-width="0.1px" />
   <line x1="305.797px" y1="166.441px" x2="181.719px" y2="103.646px" fill="none" stroke="#000" />
   <polygon points="174.199,99.84 182.919,101.275 180.519,106.017 174.199,99.84 " fill="#000" fill-rule="nonzero" stroke="#000" stroke-width="0.1px" />
   <line x1="309.006px" y1="190.514px" x2="169.165px" y2="247.514px" fill="none" stroke="#000" />
   <polygon points="161.36,250.696 168.162,245.054 170.168,249.975 161.36,250.696 " fill="#000" fill-rule="nonzero" stroke="#000" stroke-width="0.1px" />
   <line x1="161.561px" y1="259.422px" x2="527.755px" y2="205.386px" fill="none" stroke="#000" />
   <polygon points="536.093,204.155 528.143,208.015 527.367,202.756 536.093,204.155 " fill="#000" fill-rule="nonzero" stroke="#000" stroke-width="0.1px" />
   <line x1="176.37px" y1="87.815px" x2="518.972px" y2="149.697px" fill="none" stroke="#000" />
   <polygon points="527.266,151.195 518.5,152.312 519.444,147.082 527.266,151.195 " fill="#000" fill-rule="nonzero" stroke="#000" stroke-width="0.1px" />
   <g transform="translate(530.503,162.211)" font-size="12px" font-family="Arial, sans-serif">
      <text x="20.3px" y="10.8px" text-anchor="middle">
         Shutoff
      </text>
      <text x="20.3px" y="24.24px" text-anchor="middle">
         State
      </text>
   </g>
   <g transform="translate(683.422,265.009)" font-size="12px" font-family="Arial, sans-serif">
      <text x="37.282px" y="10.8px" text-anchor="middle">
         Deployment
      </text>
      <text x="37.282px" y="24.24px" text-anchor="middle">
         Mode
      </text>
   </g>
   <g transform="translate(628.347,183.458)" font-size="10px" font-family="Arial, sans-serif">
      <text x="56.85px" y="9px" text-anchor="middle">
         Power switch on, SPDT
      </text>
      <text x="56.85px" y="20.2px" text-anchor="middle">
         Switch connected to NO
      </text>
      <text x="56.85px" y="31.4px" text-anchor="middle">
         Terminal
      </text>
   </g>
   <g transform="translate(570.713,270.461)" font-size="10px" font-family="Arial, sans-serif">
      <text x="36.9px" y="9px" text-anchor="middle">
         Power switch off
      </text>
   </g>
   <g transform="translate(302.058,160.624)" font-size="12px" font-family="Arial, sans-serif">
      <text x="34.55px" y="10.8px" text-anchor="middle">
         Staging
      </text>
      <text x="34.55px" y="24.24px" text-anchor="middle">
         State
      </text>
   </g>
   <g transform="translate(372.455,180.617)" font-size="10px" font-family="Arial, sans-serif">
      <text x="75.4px" y="9px" text-anchor="middle">
         Power switch on, SPDT Switch
      </text>
      <text x="75.4px" y="20.2px" text-anchor="middle">
         connected to NC Terminal
      </text>
   </g>
   <g transform="translate(295.767,247.049)" font-size="10px" font-family="Arial, sans-serif">
      <text x="36.9px" y="9px" text-anchor="middle">
         Power switch off
      </text>
   </g>
   <g transform="translate(108.068,72.615)" font-size="12px" font-family="Arial, sans-serif">
      <text x="35.19px" y="10.8px" text-anchor="middle">
         BLE
      </text>
      <text x="35.19px" y="24.24px" text-anchor="middle">
         Readout
      </text>
   </g>
   <g transform="matrix(0.899,0.438,-0.438,0.899,187.089,114.991)" font-size="10px" font-family="Arial, sans-serif">
      <text x="56.7px" y="9px" text-anchor="middle">
         Flag set in Flash Memory
      </text>
   </g>
   <g transform="matrix(0.927,-0.375,0.375,0.927,173.45,229.391)" font-size="10px" font-family="Arial, sans-serif">
      <text x="65.1px" y="9px" text-anchor="middle">
         Flag not set in Flash Memory
      </text>
   </g>
   <g transform="translate(94.554,239)" font-size="12px" font-family="Arial, sans-serif">
      <text x="32.313px" y="10.8px" text-anchor="middle">
         Pre-
      </text>
      <text x="32.313px" y="24.24px" text-anchor="middle">
         Deployment
      </text>
      <text x="32.313px" y="37.68px" text-anchor="middle">
         Mode
      </text>
   </g>
   <g transform="translate(322.24,101.508)" font-size="10px" font-family="Arial, sans-serif">
      <text x="36.9px" y="9px" text-anchor="middle">
         Power switch off
      </text>
   </g>
   <g transform="translate(694.474,62.527)" font-size="12px" font-family="Arial, sans-serif">
      <text x="25.727px" y="10.8px" text-anchor="middle">
         Charging
      </text>
      <text x="25.727px" y="24.24px" text-anchor="middle">
         State
      </text>
   </g>
   <g transform="translate(520.041,80.791)" font-size="10px" font-family="Arial, sans-serif">
      <text x="68.537px" y="9px" text-anchor="middle">
         USB plugged in first, then
      </text>
      <text x="68.537px" y="20.2px" text-anchor="middle">
         power switch turned on
      </text>
   </g>
   <g transform="translate(616.336,132.338)" font-size="10px" font-family="Arial, sans-serif">
      <text x="70.164px" y="9px" text-anchor="middle">
         USB unplugged and power
      </text>
      <text x="70.164px" y="20.2px" text-anchor="middle">
         switch turned off
      </text>
   </g>
</svg>